<?xml version="1.0" standalone="no"?>
<!DOCTYPE svg PUBLIC "-//W3C//DTD SVG 20010904//EN"
 "http://www.w3.org/TR/2001/REC-SVG-20010904/DTD/svg10.dtd">
<svg version="1.0" xmlns="http://www.w3.org/2000/svg"
 width="500.000000pt" height="500.000000pt" viewBox="0 0 500.000000 500.000000"
 preserveAspectRatio="xMidYMid meet">

<g transform="translate(0.000000,500.000000) scale(0.100000,-0.100000)"
fill="#000000" stroke="none">
<path d="M3059 4038 c-77 -39 -193 -152 -228 -223 -23 -46 -25 -62 -26 -199
-1 -148 -1 -149 30 -211 41 -80 119 -183 245 -320 310 -339 349 -388 411 -519
146 -313 72 -626 -188 -799 -34 -22 -61 -42 -60 -44 6 -6 178 47 245 75 158
66 316 199 398 334 19 32 49 95 67 140 31 82 31 85 31 268 -1 175 -2 190 -28
270 -55 165 -137 299 -291 475 -290 329 -351 407 -421 540 -48 90 -84 185 -84
222 0 32 -23 30 -101 -9z m75 -148 c49 -131 145 -280 290 -450 35 -41 51 -66
42 -68 -39 -9 -228 77 -295 134 l-31 26 0 -44 c1 -23 7 -73 14 -110 7 -38 11
-68 8 -68 -13 0 -116 97 -144 137 l-33 45 -5 -93 -5 -94 -43 65 c-105 161
-107 337 -4 472 38 51 148 141 164 136 5 -2 24 -42 42 -88z m593 -1457 c-3
-10 -5 -4 -5 12 0 17 2 24 5 18 2 -7 2 -21 0 -30z"/>
<path d="M1456 3894 c-105 -102 -155 -203 -206 -412 -17 -72 -34 -110 -71
-168 -62 -94 -100 -171 -127 -254 -26 -78 -36 -156 -18 -141 8 7 11 -42 11
-194 0 -152 -3 -201 -11 -194 -19 16 -6 -76 22 -161 40 -121 118 -251 206
-345 178 -190 408 -291 708 -310 l105 -7 -63 38 c-290 179 -371 507 -207 839
55 111 123 197 350 440 250 268 306 348 342 488 17 67 14 176 -7 234 l-11 32
-67 -31 c-93 -42 -222 -86 -301 -103 -65 -13 -67 -13 -136 16 -80 33 -138 37
-209 13 -26 -9 -49 -15 -51 -12 -7 6 -25 131 -25 171 0 20 -4 37 -10 37 -5 0
-38 -27 -74 -60 -75 -70 -76 -69 -76 56 0 46 -4 84 -8 84 -5 0 -34 -25 -66
-56z m207 -256 c-6 -13 -93 -56 -98 -49 -2 4 -7 26 -11 48 -6 38 -3 43 42 89
l47 49 12 -65 c6 -36 9 -68 8 -72z m747 -151 c-42 -111 -111 -202 -344 -452
-165 -176 -215 -236 -275 -330 -180 -280 -187 -624 -18 -839 30 -38 30 -38 6
-31 -80 25 -200 150 -258 269 -59 121 -82 212 -90 356 l-7 125 -32 -65 c-18
-36 -32 -70 -32 -77 0 -6 -5 -15 -11 -19 -16 -10 -8 258 9 278 6 8 9 18 5 21
-3 4 -1 7 6 7 8 0 11 8 8 20 -3 11 -2 18 2 15 5 -2 13 13 20 35 19 63 105 183
187 259 94 88 192 153 427 283 100 56 207 118 237 139 67 45 156 132 167 162
6 16 9 6 11 -39 2 -43 -3 -77 -18 -117z m-1155 -892 c0 -82 -4 -140 -9 -135
-16 16 -10 280 7 280 1 0 2 -65 2 -145z"/>
<path d="M2191 2510 c-128 -126 -232 -233 -230 -239 4 -10 140 -149 358 -366
l101 -99 31 29 c45 43 60 80 60 141 0 71 -26 116 -124 213 l-75 74 85 96 c47
53 91 109 98 124 6 15 11 57 10 92 -2 53 -7 72 -30 105 -15 22 -32 44 -39 49
-7 6 -86 -64 -245 -219z"/>
<path d="M2835 2708 c-41 -48 -52 -81 -50 -152 2 -79 18 -105 119 -205 l75
-74 -87 -94 c-103 -111 -121 -142 -122 -206 0 -55 19 -98 63 -144 l30 -32 235
235 236 235 -236 236 -235 235 -28 -34z"/>
<path d="M2231 1348 c-56 -38 -75 -72 -75 -131 0 -58 20 -100 62 -132 41 -30
163 -29 194 2 21 22 21 23 4 42 -17 19 -20 19 -42 5 -63 -42 -141 -4 -151 73
-4 34 -1 45 24 73 23 25 37 32 66 32 21 0 48 -7 61 -16 22 -14 25 -14 42 5 17
19 17 20 -4 41 -16 17 -37 23 -84 26 -53 3 -68 0 -97 -20z"/>
<path d="M2540 1352 c-40 -21 -80 -90 -80 -137 0 -47 40 -116 80 -137 50 -26
128 -24 170 5 55 37 74 71 74 132 0 61 -19 95 -74 133 -42 28 -120 30 -170 4z
m155 -74 c70 -83 -24 -199 -119 -148 -57 30 -61 131 -7 165 48 30 92 24 126
-17z"/>
<path d="M2840 1215 l0 -155 88 0 c107 0 167 24 194 80 40 79 13 170 -62 208
-36 18 -61 22 -132 22 l-88 0 0 -155z m205 70 c19 -18 25 -35 25 -70 0 -67
-31 -95 -105 -95 l-55 0 0 95 0 95 55 0 c46 0 60 -4 80 -25z"/>
<path d="M3200 1215 l0 -155 115 0 115 0 0 30 0 30 -85 0 -85 0 0 35 0 35 70
0 c68 0 70 1 70 25 0 23 -3 24 -67 27 l-68 3 -3 33 -3 32 80 0 81 0 0 30 0 30
-110 0 -110 0 0 -155z"/>
<path d="M3490 1215 l0 -155 30 0 c28 0 30 2 30 40 0 40 0 40 38 40 33 0 40
-5 62 -40 22 -35 29 -40 63 -40 l38 0 -31 45 -31 46 25 30 c25 30 30 48 26 99
-5 58 -66 90 -175 90 l-75 0 0 -155z m177 69 c15 -24 15 -29 2 -53 -12 -22
-22 -26 -67 -29 l-52 -3 0 55 0 56 50 0 c42 0 52 -4 67 -26z"/>
<path d="M1280 1210 c0 -143 1 -150 20 -150 18 0 20 7 20 65 l0 65 75 0 c60 0
75 3 75 15 0 12 -15 15 -75 15 l-75 0 0 55 0 55 85 0 c69 0 85 3 85 15 0 12
-18 15 -105 15 l-105 0 0 -150z"/>
<path d="M1620 1349 c-40 -16 -80 -60 -91 -101 -25 -95 50 -188 153 -188 163
0 220 206 78 281 -37 20 -100 24 -140 8z m145 -49 c100 -94 3 -244 -130 -200
-93 31 -101 176 -12 216 44 20 112 12 142 -16z"/>
<path d="M1881 1341 c8 -11 31 -44 53 -75 l38 -55 -48 -63 c-26 -35 -52 -69
-57 -75 -7 -10 -4 -13 11 -13 14 0 36 21 68 66 l47 65 46 -65 c33 -47 52 -65
69 -66 20 0 17 7 -33 73 -30 41 -55 77 -55 81 0 5 23 39 50 77 42 58 47 69 31
69 -13 0 -35 -22 -62 -60 -23 -33 -43 -60 -44 -60 -1 0 -21 27 -45 60 -27 38
-51 60 -63 60 -17 0 -18 -2 -6 -19z"/>
<path d="M1492 841 c-2 -50 -1 -53 12 -35 14 18 15 18 21 2 4 -10 12 -18 17
-18 6 0 5 6 -2 15 -7 8 -10 24 -7 36 5 20 5 20 -13 4 -18 -16 -19 -15 -23 17
-3 23 -4 16 -5 -21z"/>
<path d="M2012 840 c-1 -43 1 -51 9 -37 10 18 11 18 31 0 21 -18 21 -18 9 5
-10 18 -10 27 0 38 6 8 7 14 1 14 -5 0 -16 -7 -23 -17 -13 -15 -15 -13 -20 18
-5 28 -7 25 -7 -21z"/>
<path d="M2332 840 c-1 -43 1 -51 9 -37 10 18 12 18 30 1 20 -18 27 -6 7 14
-8 8 -8 15 2 27 9 11 9 15 1 15 -6 0 -14 -7 -17 -15 -10 -25 -23 -17 -27 18
-2 20 -4 12 -5 -23z"/>
<path d="M2792 840 c0 -41 2 -47 7 -25 3 17 13 30 21 30 8 0 18 -13 22 -30 6
-29 6 -29 5 5 -2 28 -6 35 -22 35 -11 0 -23 9 -27 20 -3 11 -6 -4 -6 -35z"/>
<path d="M3172 841 c-2 -50 -1 -53 12 -35 14 18 15 18 21 2 4 -10 12 -18 17
-18 6 0 5 6 -2 15 -7 8 -10 24 -7 36 5 20 5 20 -13 4 -18 -16 -19 -15 -23 17
-3 23 -4 16 -5 -21z"/>
<path d="M3462 873 c-4 -10 -5 -34 -1 -53 l6 -35 2 32 c0 17 7 34 14 36 9 4 8
6 -2 6 -11 1 -11 4 -1 16 8 10 9 15 2 15 -6 0 -15 -8 -20 -17z"/>
<path d="M1301 833 c2 -46 2 -46 8 -13 l7 35 16 -30 16 -30 14 30 13 29 6 -34
c6 -33 6 -32 8 13 0 26 -1 47 -4 47 -2 0 -12 -15 -21 -32 l-17 -33 -15 33
c-22 45 -32 40 -31 -15z"/>
<path d="M2151 833 c1 -41 2 -44 8 -18 l7 30 13 -24 14 -25 15 30 16 29 7 -35
c6 -33 6 -33 8 13 1 55 -9 60 -31 15 l-15 -33 -17 33 c-9 17 -19 32 -21 32 -3
0 -4 -21 -4 -47z"/>
<path d="M2981 833 c2 -46 2 -46 8 -13 l7 35 16 -30 16 -30 14 30 13 29 6 -34
c6 -33 6 -32 8 13 0 26 -1 47 -4 47 -2 0 -12 -15 -21 -32 l-17 -33 -15 33
c-22 45 -32 40 -31 -15z"/>
<path d="M1697 864 c-9 -9 9 -68 21 -70 7 -1 8 0 2 3 -14 7 -13 50 2 55 8 3 6
6 -4 10 -9 4 -18 5 -21 2z"/>
<path d="M2540 859 c-10 -6 -11 -9 -2 -9 7 0 12 -13 12 -30 0 -22 5 -30 18
-30 13 0 14 2 3 9 -8 6 -12 19 -9 35 6 30 -2 39 -22 25z"/>
<path d="M2867 864 c-9 -10 9 -68 23 -72 12 -4 13 -2 3 9 -16 17 -17 46 -1 51
8 3 6 6 -4 10 -9 4 -18 5 -21 2z"/>
<path d="M3377 864 c-9 -9 9 -68 21 -70 7 -1 8 0 2 3 -14 7 -13 50 2 55 8 3 6
6 -4 10 -9 4 -18 5 -21 2z"/>
<path d="M3630 859 c-10 -6 -11 -9 -2 -9 7 0 12 -13 12 -30 0 -22 5 -30 18
-30 13 0 14 2 3 9 -8 6 -12 19 -9 35 6 30 -2 39 -22 25z"/>
<path d="M1433 853 c23 -6 22 -19 -4 -26 -29 -8 -19 -31 14 -35 21 -3 27 1 27
17 0 34 -11 51 -34 50 -16 -1 -17 -2 -3 -6z m22 -43 c-3 -5 -13 -10 -21 -10
-8 0 -14 5 -14 10 0 6 9 10 21 10 11 0 17 -4 14 -10z"/>
<path d="M1564 846 c-10 -26 1 -51 24 -54 12 -2 22 1 22 7 0 6 -6 8 -14 5 -8
-3 -17 -1 -21 5 -4 7 4 11 19 11 28 0 33 9 14 28 -16 16 -37 15 -44 -2z m41
-6 c3 -5 -3 -10 -15 -10 -12 0 -18 5 -15 10 3 6 10 10 15 10 5 0 12 -4 15 -10z"/>
<path d="M1673 825 c0 -22 2 -30 4 -17 2 12 2 30 0 40 -3 9 -5 -1 -4 -23z"/>
<path d="M1783 825 c13 -42 22 -44 32 -7 l7 27 12 -30 c7 -16 15 -25 19 -19
11 19 27 64 22 64 -3 0 -10 -12 -16 -27 l-11 -28 -13 30 c-13 29 -14 29 -20 8
-8 -26 -25 -31 -25 -9 0 8 -4 17 -9 20 -5 4 -4 -10 2 -29z"/>
<path d="M1890 845 c-15 -18 -7 -43 16 -52 24 -9 46 24 33 48 -12 23 -32 24
-49 4z m37 -11 c8 -21 -13 -42 -28 -27 -13 13 -5 43 11 43 6 0 13 -7 17 -16z"/>
<path d="M1961 823 c1 -38 1 -38 9 -9 5 16 15 33 22 37 9 6 6 9 -9 9 -20 0
-23 -5 -22 -37z"/>
<path d="M2265 851 c-3 -6 0 -8 8 -5 8 3 18 1 22 -5 3 -7 -2 -11 -14 -11 -14
0 -21 -6 -21 -20 0 -13 6 -20 18 -19 10 0 12 3 5 6 -18 7 -16 23 1 23 8 0 17
-8 20 -17 2 -10 4 -2 3 17 -2 35 -27 54 -42 31z"/>
<path d="M2404 846 c-11 -28 1 -51 26 -53 l25 -3 -25 12 -25 12 28 4 c20 2 27
8 25 20 -4 22 -46 28 -54 8z m41 -6 c3 -5 -3 -10 -15 -10 -12 0 -18 5 -15 10
3 6 10 10 15 10 5 0 12 -4 15 -10z"/>
<path d="M2513 825 c0 -22 2 -30 4 -17 2 12 2 30 0 40 -3 9 -5 -1 -4 -23z"/>
<path d="M2631 823 c1 -28 3 -31 6 -13 3 14 10 31 15 38 8 9 6 12 -6 12 -12 0
-16 -9 -15 -37z"/>
<path d="M2673 825 c0 -22 2 -30 4 -17 2 12 2 30 0 40 -3 9 -5 -1 -4 -23z"/>
<path d="M2710 845 c-16 -19 -6 -45 20 -52 11 -3 20 -10 20 -15 0 -6 -9 -8
-20 -5 -11 3 -20 1 -20 -4 0 -5 9 -9 20 -9 24 0 40 28 40 69 0 26 -4 31 -24
31 -13 0 -29 -7 -36 -15z m43 -7 c6 -19 -3 -38 -18 -38 -18 0 -28 17 -21 35 7
18 33 20 39 3z"/>
<path d="M3113 853 c23 -6 22 -19 -4 -26 -29 -8 -19 -31 14 -35 21 -3 27 1 27
17 0 34 -11 51 -34 50 -16 -1 -17 -2 -3 -6z m22 -43 c-3 -5 -13 -10 -21 -10
-8 0 -14 5 -14 10 0 6 9 10 21 10 11 0 17 -4 14 -10z"/>
<path d="M3240 845 c-23 -28 17 -72 42 -47 8 8 5 9 -11 5 -12 -3 -21 -1 -21 6
0 6 11 11 25 11 23 0 24 2 15 20 -13 24 -33 26 -50 5z m40 -5 c0 -5 -7 -10
-15 -10 -8 0 -15 5 -15 10 0 6 7 10 15 10 8 0 15 -4 15 -10z"/>
<path d="M3353 825 c0 -22 2 -30 4 -17 2 12 2 30 0 40 -3 9 -5 -1 -4 -23z"/>
<path d="M3505 851 c-3 -6 0 -8 8 -5 8 3 18 1 22 -5 3 -7 -2 -11 -14 -11 -14
0 -21 -6 -21 -20 0 -13 6 -20 18 -19 10 0 12 3 5 6 -18 7 -16 23 1 23 8 0 17
-8 20 -17 2 -10 4 -2 3 17 -2 35 -27 54 -42 31z"/>
<path d="M3574 848 c-4 -6 0 -16 9 -23 21 -15 22 -29 2 -21 -8 3 -15 1 -15 -5
0 -15 43 -7 48 9 2 7 -5 16 -17 19 -26 7 -27 20 -3 26 15 4 15 5 0 6 -9 0 -20
-4 -24 -11z"/>
<path d="M2922 790 c0 -14 2 -19 5 -12 2 6 2 18 0 25 -3 6 -5 1 -5 -13z"/>
<path d="M3680 800 c0 -5 5 -10 10 -10 6 0 10 5 10 10 0 6 -4 10 -10 10 -5 0
-10 -4 -10 -10z"/>
<path d="M2080 785 c0 -8 2 -15 4 -15 2 0 6 7 10 15 3 8 1 15 -4 15 -6 0 -10
-7 -10 -15z"/>
</g>
</svg>
